<?xml version="1.0" standalone="no"?>
<!DOCTYPE svg PUBLIC "-//W3C//DTD SVG 20010904//EN"
 "http://www.w3.org/TR/2001/REC-SVG-20010904/DTD/svg10.dtd">
<svg version="1.0" xmlns="http://www.w3.org/2000/svg"
 width="512.000000pt" height="512.000000pt" viewBox="0 0 512.000000 512.000000"
 preserveAspectRatio="xMidYMid meet">
<metadata>
Created by potrace 1.16, written by Peter Selinger 2001-2019
</metadata>
<g transform="translate(0.000000,512.000000) scale(0.100000,-0.100000)"
fill="#000000" stroke="none">
<path d="M2455 3344 c-281 -46 -514 -223 -618 -470 -48 -113 -61 -181 -61
-314 0 -133 13 -201 61 -314 74 -177 233 -336 408 -409 114 -48 182 -61 315
-61 133 0 201 13 315 61 175 73 334 232 408 409 48 113 61 181 61 314 0 133
-13 201 -61 314 -92 219 -287 385 -528 450 -61 17 -244 28 -300 20z m630 -529
c56 -56 25 -92 -134 -154 l-124 -49 -67 -167 c-73 -181 -89 -208 -140 -243
-61 -41 -64 -34 -71 131 -4 81 -9 151 -13 154 -3 4 -73 -20 -154 -52 -130 -52
-152 -64 -193 -107 -27 -29 -54 -48 -67 -48 -25 0 -26 4 -10 64 l12 44 -45 54
c-76 91 -75 88 -58 99 25 16 56 10 124 -26 l67 -34 145 73 146 73 -79 54 c-43
30 -79 61 -79 69 0 9 19 20 52 29 48 13 64 12 197 -13 80 -14 154 -26 164 -26
11 0 78 22 149 50 70 27 134 49 141 50 7 0 24 -11 37 -25z"/>
<path d="M90 3122 c-62 -27 -90 -73 -90 -143 0 -67 27 -115 80 -141 32 -17 90
-18 771 -18 l736 0 12 43 c15 50 81 189 111 235 l22 32 -814 -1 c-447 0 -820
-3 -828 -7z"/>
<path d="M3410 3098 c30 -46 96 -185 111 -235 l12 -43 736 0 c681 0 739 1 771
18 52 26 80 74 80 139 0 60 -17 97 -58 128 -26 20 -45 20 -851 23 l-823 2 22
-32z"/>
<path d="M497 2713 c-15 -2 -45 -21 -66 -41 -70 -67 -64 -174 12 -236 l39 -31
537 -3 537 -3 0 161 0 160 -516 -1 c-283 -1 -528 -4 -543 -6z"/>
<path d="M3564 2560 l0 -160 506 0 c278 0 522 3 544 7 57 9 112 65 121 123 9
63 -11 116 -58 154 l-39 31 -537 3 -537 3 0 -161z"/>
<path d="M810 2289 c-119 -47 -130 -229 -17 -282 31 -15 86 -17 487 -17 l452
0 -22 33 c-30 45 -96 184 -111 235 l-12 42 -376 -1 c-224 0 -386 -4 -401 -10z"/>
<path d="M3521 2258 c-15 -51 -81 -190 -111 -235 l-22 -33 454 0 c423 0 456 1
488 19 49 26 74 73 74 138 0 57 -17 90 -68 127 -26 20 -41 21 -415 24 l-388 3
-12 -43z"/>
</g>
</svg>
